<svg xmlns="http://www.w3.org/2000/svg" viewBox="0 0 100 100" fill="none">
  <!-- Голова -->
  <circle cx="50" cy="30" r="15" fill="#F6AD55" stroke="#DD6B20" stroke-width="2"/>
  
  <!-- Глаза -->
  <circle cx="45" cy="25" r="2" fill="#1A202C"/>
  <circle cx="55" cy="25" r="2" fill="#1A202C"/>
  
  <!-- Рот -->
  <path d="M45 35 Q 50 40, 55 35" stroke="#1A202C" stroke-width="1" fill="none"/>
  
  <!-- Тело -->
  <rect x="40" y="45" width="20" height="30" rx="5" fill="#4299E1" stroke="#3182CE" stroke-width="2"/>
  
  <!-- Руки -->
  <rect x="30" y="45" width="10" height="25" rx="5" fill="#4299E1" stroke="#3182CE" stroke-width="2"/>
  <rect x="60" y="45" width="10" height="25" rx="5" fill="#4299E1" stroke="#3182CE" stroke-width="2"/>
  
  <!-- Ноги -->
  <rect x="40" y="75" width="8" height="20" rx="4" fill="#2B6CB0" stroke="#2C5282" stroke-width="2"/>
  <rect x="52" y="75" width="8" height="20" rx="4" fill="#2B6CB0" stroke="#2C5282" stroke-width="2"/>
  
  <!-- Пояс -->
  <rect x="40" y="45" width="20" height="5" fill="#2C5282" stroke="#2A4365" stroke-width="1"/>
  
  <!-- Волосы -->
  <path d="M35 20 Q 40 10, 50 12 Q 60 10, 65 20" stroke="#A0AEC0" stroke-width="2" fill="#A0AEC0"/>
  
  <!-- Детали -->
  <circle cx="50" cy="50" r="3" fill="#F6E05E" stroke="#D69E2E" stroke-width="1"/>
  <rect x="45" y="55" width="10" height="5" rx="2" fill="#E2E8F0"/>
</svg>
