<svg xmlns="http://www.w3.org/2000/svg" viewBox="0 0 24 24" fill="none" stroke="currentColor" stroke-width="2" stroke-linecap="round" stroke-linejoin="round">
  <rect x="3" y="8" width="18" height="12" rx="2" fill="#F6E05E" stroke="#D69E2E"/>
  <path d="M3 13H21" stroke="#D69E2E"/>
  <rect x="9" y="10" width="6" height="8" fill="#D69E2E" stroke="#B7791F"/>
  <circle cx="12" cy="14" r="1" fill="#FFFFF0"/>
  <rect x="7" y="5" width="10" height="3" rx="1" fill="#F6E05E" stroke="#D69E2E"/>
  <path d="M9 16L9 18" stroke="#D69E2E"/>
  <path d="M15 16L15 18" stroke="#D69E2E"/>
  <path d="M6 10L2 6" stroke="#D69E2E"/>
  <path d="M18 10L22 6" stroke="#D69E2E"/>
  <path d="M12 2L14 5" stroke="#D69E2E"/>
  <path d="M12 2L10 5" stroke="#D69E2E"/>
  <path d="M6 20L3 22" stroke="#D69E2E"/>
  <path d="M18 20L21 22" stroke="#D69E2E"/>
  <path d="M5 13L3 16" stroke="#D69E2E"/>
  <path d="M19 13L21 16" stroke="#D69E2E"/>
</svg>
