<svg xmlns="http://www.w3.org/2000/svg" viewBox="0 0 24 24" fill="none" stroke="currentColor" stroke-width="2" stroke-linecap="round" stroke-linejoin="round">
  <circle cx="6" cy="12" r="4" fill="#F6E05E" stroke="#D69E2E"/>
  <circle cx="14" cy="8" r="4" fill="#F6E05E" stroke="#D69E2E"/>
  <circle cx="16" cy="16" r="4" fill="#F6E05E" stroke="#D69E2E"/>
  <circle cx="6" cy="12" r="1" fill="#FEFCBF" stroke="none"/>
  <circle cx="14" cy="8" r="1" fill="#FEFCBF" stroke="none"/>
  <circle cx="16" cy="16" r="1" fill="#FEFCBF" stroke="none"/>
  <path d="M5 9L5 10" stroke="#D69E2E"/>
  <path d="M5 14L5 15" stroke="#D69E2E"/>
  <path d="M3 12L4 12" stroke="#D69E2E"/>
  <path d="M8 12L9 12" stroke="#D69E2E"/>
  <path d="M13 5L13 6" stroke="#D69E2E"/>
  <path d="M13 10L13 11" stroke="#D69E2E"/>
  <path d="M11 8L12 8" stroke="#D69E2E"/>
  <path d="M16 8L17 8" stroke="#D69E2E"/>
  <path d="M15 13L15 14" stroke="#D69E2E"/>
  <path d="M15 18L15 19" stroke="#D69E2E"/>
  <path d="M13 16L14 16" stroke="#D69E2E"/>
  <path d="M18 16L19 16" stroke="#D69E2E"/>
</svg>
