<svg xmlns="http://www.w3.org/2000/svg" viewBox="0 0 24 24" fill="none" stroke="currentColor" stroke-width="2" stroke-linecap="round" stroke-linejoin="round">
  <path d="M1 21L4 16L8 19L12 14L16 19L20 16L23 21V23H1V21Z" fill="#4A5568" stroke="#2D3748"/>
  <path d="M5 21V12C5 10 7 7 12 7C17 7 19 10 19 12V21" fill="#2D3748" stroke="#1A202C"/>
  <path d="M9 13C9 13 10 15 12 15C14 15 15 13 15 13" stroke="#A0AEC0" stroke-opacity="0.5" fill="none"/>
  <circle cx="10" cy="10" r="1" fill="#A0AEC0"/>
  <circle cx="14" cy="10" r="1" fill="#A0AEC0"/>
  <path d="M5 12C3 15 2 13 3 10" stroke="#1A202C" stroke-opacity="0.5"/>
  <path d="M19 12C21 15 22 13 21 10" stroke="#1A202C" stroke-opacity="0.5"/>
</svg>
