<svg xmlns="http://www.w3.org/2000/svg" viewBox="0 0 24 24" fill="none" stroke="currentColor" stroke-width="2" stroke-linecap="round" stroke-linejoin="round">
  <rect x="7" y="4" width="10" height="16" fill="#4A5568" stroke="#2D3748"/>
  <rect x="9" y="7" width="6" height="2" fill="#1A202C" stroke="#2D3748"/>
  <rect x="9" y="11" width="6" height="2" fill="#1A202C" stroke="#2D3748"/>
  <rect x="9" y="15" width="6" height="2" fill="#1A202C" stroke="#2D3748"/>
  <path d="M5 20H19" stroke="#2D3748"/>
  <path d="M7 4L7 2" stroke="#2D3748"/>
  <path d="M10 4L10 3" stroke="#2D3748"/>
  <path d="M14 4L14.5 3" stroke="#2D3748"/>
  <path d="M17 4L17 2" stroke="#2D3748"/>
  <path d="M9 1L8.5 3" stroke="#2D3748"/>
  <path d="M15 1L15.5 3" stroke="#2D3748"/>
  <path d="M12 1L12 3" stroke="#2D3748"/>
  <path d="M6 20C6 22 5 23 4 21" stroke="#2D3748" stroke-opacity="0.5"/>
  <path d="M18 20C18 22 19 23 20 21" stroke="#2D3748" stroke-opacity="0.5"/>
  <circle cx="12" cy="9" r="1" fill="#A0AEC0"/>
  <path d="M11 13H13" stroke="#A0AEC0"/>
  <path d="M11 17H13" stroke="#A0AEC0"/>
</svg>
